<?xml version="1.0" encoding="UTF-8" standalone="no"?>
<!-- Created with Inkscape (http://www.inkscape.org/) -->
<svg
   xmlns:dc="http://purl.org/dc/elements/1.1/"
   xmlns:cc="http://web.resource.org/cc/"
   xmlns:rdf="http://www.w3.org/1999/02/22-rdf-syntax-ns#"
   xmlns:svg="http://www.w3.org/2000/svg"
   xmlns="http://www.w3.org/2000/svg"
   xmlns:sodipodi="http://inkscape.sourceforge.net/DTD/sodipodi-0.dtd"
   xmlns:inkscape="http://www.inkscape.org/namespaces/inkscape"
   id="svg2"
   sodipodi:version="0.32"
   inkscape:version="0.43"
   width="370pt"
   height="370pt"
   sodipodi:docbase="F:\Guillermo\Imachens\wiki"
   sodipodi:docname="simbolo metallica.svg"
   version="1.0">
  <metadata
     id="metadata7">
    <rdf:RDF>
      <cc:Work
         rdf:about="">
        <dc:format>image/svg+xml</dc:format>
        <dc:type
           rdf:resource="http://purl.org/dc/dcmitype/StillImage" />
      </cc:Work>
    </rdf:RDF>
  </metadata>
  <defs
     id="defs5" />
  <sodipodi:namedview
     inkscape:window-height="742"
     inkscape:window-width="1024"
     inkscape:pageshadow="2"
     inkscape:pageopacity="0.0"
     borderopacity="1.0"
     bordercolor="#666666"
     pagecolor="#ffffff"
     id="base"
     inkscape:zoom="0.50125486"
     inkscape:cx="227.57224"
     inkscape:cy="442.41057"
     inkscape:window-x="-4"
     inkscape:window-y="-4"
     inkscape:current-layer="svg2" />
  <path
     style="fill:#000000;fill-opacity:1;fill-rule:evenodd;stroke:#000000;stroke-width:1.79999995;stroke-linecap:butt;stroke-linejoin:miter;stroke-miterlimit:4;stroke-dasharray:none;stroke-opacity:1"
     d="M 147.2184,322.99612 L 20.257819,453.48338 L 111.95157,190.39284 L 45.649929,231.30236 L 162.03047,113.51115 L 138.04903,178.40212 L 146.51307,196.74087 L 176.84254,160.06336 L 183.19057,287.72929 L 154.27176,315.94275 L 163.44114,197.4462 L 143.69172,222.83832 L 132.40633,193.91952 L 87.970129,361.08429 L 147.2184,322.99612 z "
     id="path5849"
     sodipodi:nodetypes="ccccccccccccccc" />
  <path
     style="fill:#000000;fill-opacity:1;fill-rule:evenodd;stroke:#000000;stroke-width:1.79999995;stroke-linecap:butt;stroke-linejoin:miter;stroke-miterlimit:4;stroke-dasharray:none;stroke-opacity:1"
     d="M 140.05052,146.24467 L 9.5632633,19.284088 L 272.6538,110.97784 L 231.74428,44.676198 L 349.53549,161.05674 L 284.64452,137.0753 L 266.30577,145.53934 L 302.98328,175.86881 L 175.31735,182.21684 L 147.10389,153.29803 L 265.60044,162.46741 L 240.20832,142.71799 L 269.12712,131.4326 L 101.96235,86.996398 L 140.05052,146.24467 z "
     id="path7597"
     sodipodi:nodetypes="ccccccccccccccc" />
  <path
     style="fill:#000000;fill-opacity:1;fill-rule:evenodd;stroke:#000000;stroke-width:1.79999995;stroke-linecap:butt;stroke-linejoin:miter;stroke-miterlimit:4;stroke-dasharray:none;stroke-opacity:1"
     d="M 319.58954,141.05132 L 446.55012,10.564079 L 354.85637,273.6546 L 421.15801,232.74509 L 304.77747,350.5363 L 328.75891,285.64532 L 320.29487,267.30657 L 289.9654,303.98408 L 283.61737,176.31815 L 312.53618,148.1047 L 303.3668,266.60124 L 323.11622,241.20913 L 334.40161,270.12793 L 378.83781,102.96315 L 319.58954,141.05132 z "
     id="path7599"
     sodipodi:nodetypes="ccccccccccccccc" />
  <path
     style="fill:#000000;fill-opacity:1;fill-rule:evenodd;stroke:#000000;stroke-width:1.79999995;stroke-linecap:butt;stroke-linejoin:miter;stroke-miterlimit:4;stroke-dasharray:none;stroke-opacity:1"
     d="M 324.78289,316.60035 L 455.27013,443.56094 L 192.17961,351.86718 L 233.08912,418.16883 L 115.29791,301.78829 L 180.18889,325.76973 L 198.52764,317.30568 L 161.85013,286.97621 L 289.51606,280.62818 L 317.72951,309.54699 L 199.23297,300.37762 L 224.62508,320.12703 L 195.70628,331.41242 L 362.87106,375.84863 L 324.78289,316.60035 z "
     id="path7601"
     sodipodi:nodetypes="ccccccccccccccc" />
</svg>
